<?xml version="1.0" standalone="no"?><!DOCTYPE svg PUBLIC "-//W3C//DTD SVG 1.1//EN" "http://www.w3.org/Graphics/SVG/1.1/DTD/svg11.dtd"><svg t="1610692812957" class="icon" viewBox="0 0 1024 1024" version="1.1" xmlns="http://www.w3.org/2000/svg" p-id="850" xmlns:xlink="http://www.w3.org/1999/xlink" width="200" height="200"><defs><style type="text/css"></style></defs><path d="M512 32a480 480 0 1 0 480 480A480 480 0 0 0 512 32z m-15.424 770.08a56.736 56.736 0 1 1 55.648-56.736 56.224 56.224 0 0 1-55.648 56.736z m155.488-356.544a156.448 156.448 0 0 1-27.36 37.92q-16 16-56.96 53.728a233.184 233.184 0 0 0-18.144 18.72 70.784 70.784 0 0 0-15.36 28.16q-3.008 11.648-5.504 23.424a37.6 37.6 0 0 1-39.744 35.712 40 40 0 0 1-29.216-11.712A46.688 46.688 0 0 1 448 596.896a130.848 130.848 0 0 1 8.64-49.856 127.104 127.104 0 0 1 23.008-37.088 527.584 527.584 0 0 1 38.72-37.856c14.272-12.8 24.512-22.4 30.88-29.024a95.52 95.52 0 0 0 16-21.792 61.376 61.376 0 0 0-13.344-72.384 71.2 71.2 0 0 0-51.2-18.848 69.632 69.632 0 0 0-54.08 19.008 153.6 153.6 0 0 0-29.376 56.096 44.8 44.8 0 0 1-43.072 38.784 45.248 45.248 0 0 1-44.384-42.88 126.592 126.592 0 0 1 20.352-66.08A158.656 158.656 0 0 1 409.6 279.584a182.816 182.816 0 0 1 91.168-22.016 189.984 189.984 0 0 1 85.376 18.368 138.944 138.944 0 0 1 57.056 49.952 124.8 124.8 0 0 1 20.224 68.576 109.056 109.056 0 0 1-11.52 51.2z m0 0" fill="#5866D0" p-id="851"></path><path d="M496.576 802.08a56.736 56.736 0 1 1 55.648-56.736 56.224 56.224 0 0 1-55.648 56.736z m155.488-356.544a156.448 156.448 0 0 1-27.36 37.92q-16 16-56.96 53.728a233.184 233.184 0 0 0-18.144 18.72 70.784 70.784 0 0 0-15.36 28.16q-3.008 11.648-5.504 23.424a37.6 37.6 0 0 1-39.744 35.712 40 40 0 0 1-29.216-11.712A46.688 46.688 0 0 1 448 596.896a130.848 130.848 0 0 1 8.64-49.856 127.104 127.104 0 0 1 23.008-37.088 527.584 527.584 0 0 1 38.72-37.856c14.272-12.8 24.512-22.4 30.88-29.024a95.52 95.52 0 0 0 16-21.792 61.376 61.376 0 0 0-13.344-72.384 71.2 71.2 0 0 0-51.2-18.848 69.632 69.632 0 0 0-54.08 19.008 153.6 153.6 0 0 0-29.376 56.096 44.8 44.8 0 0 1-43.072 38.784 45.248 45.248 0 0 1-44.384-42.88 126.592 126.592 0 0 1 20.352-66.08A158.656 158.656 0 0 1 409.6 279.584a182.816 182.816 0 0 1 91.168-22.016 189.984 189.984 0 0 1 85.376 18.368 138.944 138.944 0 0 1 57.056 49.952 124.8 124.8 0 0 1 20.224 68.576 109.056 109.056 0 0 1-11.52 51.2z m0 0" fill="#F17254" p-id="852"></path></svg>