<?xml version="1.0" standalone="no"?><!DOCTYPE svg PUBLIC "-//W3C//DTD SVG 1.1//EN" "http://www.w3.org/Graphics/SVG/1.1/DTD/svg11.dtd"><svg t="1610692855599" class="icon" viewBox="0 0 1024 1024" version="1.1" xmlns="http://www.w3.org/2000/svg" p-id="1360" xmlns:xlink="http://www.w3.org/1999/xlink" width="200" height="200"><defs><style type="text/css"></style></defs><path d="M75.04 548.128h81.472a11.072 11.072 0 0 1 11.104 11.072v12.256a11.072 11.072 0 0 1-11.104 11.008H75.04a11.072 11.072 0 0 1-11.04-11.04v-12.192a11.104 11.104 0 0 1 11.104-11.072l-0.064-0.032z m0-343.328h81.472a11.072 11.072 0 0 1 11.104 11.072v12.288a11.072 11.072 0 0 1-11.104 11.04H75.04a11.072 11.072 0 0 1-11.04-11.04v-12.288c0-6.096 4.944-11.04 11.04-11.072z m0 171.712h81.472a11.072 11.072 0 0 1 11.104 11.04V400a11.072 11.072 0 0 1-11.104 11.04H75.04A11.072 11.072 0 0 1 64 400v-12.416a11.072 11.072 0 0 1 11.104-11.04l-0.064-0.032z m0 343.2h81.472a11.072 11.072 0 0 1 11.104 11.04v12.288a11.072 11.072 0 0 1-11.104 11.072H75.04A11.104 11.104 0 0 1 64 743.04v-12.224a11.072 11.072 0 0 1 11.104-11.04l-0.064-0.064z m755.2-620.16a8.64 8.64 0 0 1-8.64-7.648 68.928 68.928 0 0 0-68.672-60.928h-578.4A77.888 77.888 0 0 0 119.552 53.6a76.992 76.992 0 0 0-22.784 54.656v51.2a8.672 8.672 0 0 0 8.704 8.672h51.584a43.424 43.424 0 0 1 30.624 12.576c8.16 8.032 12.768 18.992 12.8 30.432V236.8a34.528 34.528 0 0 1-34.56 34.368H105.6a8.672 8.672 0 0 0-8.768 8.672v51.2a8.672 8.672 0 0 0 8.704 8.672h51.52a43.424 43.424 0 0 1 43.392 43.04V400a43.424 43.424 0 0 1-43.392 43.04H105.6a8.672 8.672 0 0 0-8.704 8.672v51.2c0.016 4.8 3.904 8.672 8.704 8.672h51.488a43.168 43.168 0 0 1 43.296 43.04v25.6a34.528 34.528 0 0 1-34.56 34.368H105.6a8.672 8.672 0 0 0-8.704 8.672v51.392c0.016 4.8 3.904 8.672 8.704 8.672h51.488a43.168 43.168 0 0 1 43.296 43.072V752a34.56 34.56 0 0 1-34.56 34.368H105.6a8.608 8.608 0 0 0-8.736 8.704V915.2c0 20.528 8.192 40.192 22.752 54.656a77.984 77.984 0 0 0 54.976 22.624H882.24a77.984 77.984 0 0 0 54.976-22.624A77.056 77.056 0 0 0 960 915.2V168.224a68.864 68.864 0 0 0-69.024-68.608l-60.736-0.064zM434.304 746.176L329.6 784.8a8.704 8.704 0 0 1-11.712-7.392l-8.384-101.472a8.736 8.736 0 0 1 12.928-8.288l113.056 62.816a8.64 8.64 0 0 1-1.216 15.68l0.032 0.032z m456.64 143.072c0 37.856-2.144 68.608-68.992 68.608h-621.6A69.024 69.024 0 0 1 132.096 899.2a8.768 8.768 0 0 1 8.704-9.984h603.296a77.952 77.952 0 0 0 54.976-22.624 77.056 77.056 0 0 0 22.752-54.656V142.784a8.704 8.704 0 0 1 8.832-8.672c33.92 0.352 60.192 5.024 60.192 68.576v686.528l0.096 0.032z" fill="#5866D0" p-id="1361"></path><path d="M75.04 548.128h81.472a11.072 11.072 0 0 1 11.104 11.072v12.256a11.072 11.072 0 0 1-11.104 11.008H75.04a11.072 11.072 0 0 1-11.04-11.04v-12.192a11.104 11.104 0 0 1 11.104-11.072l-0.064-0.032z m0-343.328h81.472a11.072 11.072 0 0 1 11.104 11.072v12.288a11.072 11.072 0 0 1-11.104 11.04H75.04a11.072 11.072 0 0 1-11.04-11.04v-12.288c0-6.096 4.944-11.04 11.04-11.072z m0 171.712h81.472a11.072 11.072 0 0 1 11.104 11.04V400a11.072 11.072 0 0 1-11.104 11.04H75.04A11.072 11.072 0 0 1 64 400v-12.416a11.072 11.072 0 0 1 11.104-11.04l-0.064-0.032z m0 343.2h81.472a11.072 11.072 0 0 1 11.104 11.04v12.288a11.072 11.072 0 0 1-11.104 11.072H75.04A11.104 11.104 0 0 1 64 743.04v-12.224a11.072 11.072 0 0 1 11.104-11.04l-0.064-0.064z m515.712-534.688a40.192 40.192 0 0 1 48.352-12.608l82.432 45.888a37.248 37.248 0 0 1 13.056 46.752l-260.48 437.6a8.736 8.736 0 0 1-11.744 3.2l-128.608-71.552a8.64 8.64 0 0 1-3.2-11.968l260.192-437.312z m-156.448 561.152L329.6 784.8a8.704 8.704 0 0 1-11.712-7.392l-8.384-101.472a8.736 8.736 0 0 1 12.928-8.288l113.056 62.816a8.64 8.64 0 0 1-1.216 15.68l0.032 0.032z" fill="#F17254" p-id="1362"></path></svg>