<?xml version="1.0" standalone="no"?><!DOCTYPE svg PUBLIC "-//W3C//DTD SVG 1.1//EN" "http://www.w3.org/Graphics/SVG/1.1/DTD/svg11.dtd"><svg t="1610692872022" class="icon" viewBox="0 0 1024 1024" version="1.1" xmlns="http://www.w3.org/2000/svg" p-id="1510" xmlns:xlink="http://www.w3.org/1999/xlink" width="200" height="200"><defs><style type="text/css"></style></defs><path d="M973.728 183.104a248.8 248.8 0 0 1-51.84 267.072 235.36 235.36 0 0 1-286.944 39.232L568.832 563.2l47.136 48.352 28.16-28.8a36.352 36.352 0 0 1 52.192 0l228.608 235.904a38.4 38.4 0 0 1 0 53.312l-104.352 106.592a36.352 36.352 0 0 1-52.192 0l-228.608-235.904a38.4 38.4 0 0 1 0-53.28l25.6-26.272-44.8-46.048-316.16 352.832a72.672 72.672 0 0 1-104.352 0l-26.08-26.656a76.512 76.512 0 0 1 0-106.592l360.16-308.16-239.232-245.024h-75.52L32 139.808l70.4-72 143.776 89.856 0.96 75.584 241.984 248.16 70.4-60.224a248.288 248.288 0 0 1 23.2-317.472 236.16 236.16 0 0 1 260.256-53.568L688 206.336l130.432 133.248z m-813.12 691.2a36.352 36.352 0 0 0-52.192 0 38.4 38.4 0 0 0 0 53.312 36.352 36.352 0 0 0 52.192 0 38.4 38.4 0 0 0 0-53.312z m0 0" fill="#5866D0" p-id="1511"></path><path d="M568.832 563.2l47.136 48.352 28.16-28.8a36.352 36.352 0 0 1 52.192 0l228.608 235.904a38.4 38.4 0 0 1 0 53.312l-104.352 106.592a36.352 36.352 0 0 1-52.192 0l-228.608-235.904a38.4 38.4 0 0 1 0-53.28l25.6-26.272-44.8-46.048m-86.4-88.576L194.912 283.456h-75.52L32 139.808l70.4-72 143.776 89.856 0.96 75.584 241.984 248.16" fill="#F17254" p-id="1512"></path></svg>